# Blender v2.79 (sub 0) OBJ File: ''
# www.blender.org
mtllib model1.mtl
o Cube_Cube.003
v -1.200000 -0.023457 1.200000
v -1.200000 -0.263457 -1.200000
v -1.200000 -0.263457 1.200000
v -1.200000 -0.023457 -1.200000
v 1.200000 -0.263457 -1.200000
v 1.200000 -0.023457 -1.200000
v 1.200000 -0.263457 1.200000
v 1.200000 -0.023457 1.200000
vn -1.0000 0.0000 0.0000
vn 0.0000 0.0000 -1.0000
vn 1.0000 0.0000 0.0000
vn 0.0000 0.0000 1.0000
vn 0.0000 -1.0000 -0.0000
vn 0.0000 1.0000 0.0000
usemtl None
s 1
f 1//1 2//1 3//1
f 4//2 5//2 2//2
f 6//3 7//3 5//3
f 8//4 3//4 7//4
f 5//5 3//5 2//5
f 4//6 8//6 6//6
f 1//1 4//1 2//1
f 4//2 6//2 5//2
f 6//3 8//3 7//3
f 8//4 1//4 3//4
f 5//5 7//5 3//5
f 4//6 1//6 8//6
o Cube.004_Cube.007
v -1.219395 0.117579 -0.295171
v -0.353370 0.042579 -0.795171
v -1.219395 0.042579 -0.295171
v 0.512656 0.117579 -1.295171
v 0.562656 0.042579 -1.208568
v 0.512656 0.042579 -1.295171
v 0.612656 0.117579 -1.121966
v -0.253370 0.042579 -0.621966
v 0.612656 0.042579 -1.121966
v -1.119395 0.117579 -0.121966
v -1.169395 0.042579 -0.208568
v -1.119395 0.042579 -0.121966
v 0.612656 -0.032421 -1.121966
v -0.303370 -0.032421 -0.708568
v 0.562656 -0.032421 -1.208568
v -0.303370 0.117579 -0.708568
v 0.562656 0.117579 -1.208568
v -0.353370 0.117579 -0.795171
v -0.253370 0.117579 -0.621966
v -1.169395 0.117579 -0.208568
v -0.253370 -0.032421 -0.621966
v -1.169395 -0.032421 -0.208568
v -1.219395 -0.032421 -0.295171
v -1.119395 -0.032421 -0.121966
v 0.512656 -0.032421 -1.295171
v -0.353370 -0.032421 -0.795171
vn -0.5000 0.0000 -0.8660
vn 0.8660 0.0000 -0.5000
vn 0.5000 0.0000 0.8660
vn -0.8660 0.0000 0.5000
vn 0.0000 -1.0000 -0.0000
vn 0.0000 1.0000 0.0000
usemtl None
s 1
f 9//7 10//7 11//7
f 12//8 13//8 14//8
f 15//9 16//9 17//9
f 18//10 19//10 20//10
f 21//11 22//11 23//11
f 12//12 24//12 25//12
f 9//7 26//7 10//7
f 12//8 25//8 13//8
f 15//9 27//9 16//9
f 18//10 28//10 19//10
f 21//11 29//11 22//11
f 12//12 26//12 24//12
f 24//12 28//12 18//12
f 24//12 26//12 28//12
f 26//12 9//12 28//12
f 22//11 30//11 31//11
f 22//11 29//11 30//11
f 29//11 32//11 30//11
f 19//10 11//10 31//10
f 19//10 28//10 11//10
f 28//10 9//10 11//10
f 16//9 20//9 32//9
f 16//9 27//9 20//9
f 27//9 18//9 20//9
f 13//8 17//8 21//8
f 13//8 25//8 17//8
f 25//8 15//8 17//8
f 10//7 14//7 33//7
f 10//7 26//7 14//7
f 26//7 12//7 14//7
f 25//12 27//12 15//12
f 25//12 24//12 27//12
f 24//12 18//12 27//12
f 23//11 34//11 33//11
f 23//11 22//11 34//11
f 22//11 31//11 34//11
f 20//10 30//10 32//10
f 20//10 19//10 30//10
f 19//10 31//10 30//10
f 17//9 29//9 21//9
f 17//9 16//9 29//9
f 16//9 32//9 29//9
f 14//8 23//8 33//8
f 14//8 13//8 23//8
f 13//8 21//8 23//8
f 11//7 34//7 31//7
f 11//7 10//7 34//7
f 10//7 33//7 34//7
o Cube.002_Cube.005
v 0.874277 0.117579 0.588876
v 0.374277 0.042579 -0.277150
v 0.874277 0.042579 0.588876
v -0.125723 0.117579 -1.143175
v -0.039120 0.042579 -1.193175
v -0.125723 0.042579 -1.143175
v 0.047482 0.117579 -1.243175
v 0.547482 0.042579 -0.377150
v 0.047482 0.042579 -1.243175
v 1.047482 0.117579 0.488876
v 0.960880 0.042579 0.538876
v 1.047482 0.042579 0.488876
v 0.047482 -0.032421 -1.243175
v 0.460880 -0.032421 -0.327150
v -0.039120 -0.032421 -1.193175
v 0.460880 0.117579 -0.327150
v -0.039120 0.117579 -1.193175
v 0.374277 0.117579 -0.277150
v 0.547482 0.117579 -0.377150
v 0.960880 0.117579 0.538876
v 0.547482 -0.032421 -0.377150
v 0.960880 -0.032421 0.538876
v 0.874277 -0.032421 0.588876
v 1.047482 -0.032421 0.488876
v -0.125723 -0.032421 -1.143175
v 0.374277 -0.032421 -0.277150
vn -0.8660 0.0000 0.5000
vn -0.5000 0.0000 -0.8660
vn 0.8660 0.0000 -0.5000
vn 0.5000 0.0000 0.8660
vn 0.0000 -1.0000 -0.0000
vn 0.0000 1.0000 -0.0000
usemtl None
s 1
f 35//13 36//13 37//13
f 38//14 39//14 40//14
f 41//15 42//15 43//15
f 44//16 45//16 46//16
f 47//17 48//17 49//17
f 38//18 50//18 51//18
f 35//13 52//13 36//13
f 38//14 51//14 39//14
f 41//15 53//15 42//15
f 44//16 54//16 45//16
f 47//17 55//17 48//17
f 38//18 52//18 50//18
f 50//18 54//18 44//18
f 50//18 52//18 54//18
f 52//18 35//18 54//18
f 48//17 56//17 57//17
f 48//17 55//17 56//17
f 55//17 58//17 56//17
f 45//16 37//16 57//16
f 45//16 54//16 37//16
f 54//16 35//16 37//16
f 42//15 46//15 58//15
f 42//15 53//15 46//15
f 53//15 44//15 46//15
f 39//14 43//14 47//14
f 39//14 51//14 43//14
f 51//14 41//14 43//14
f 36//13 40//13 59//13
f 36//13 52//13 40//13
f 52//13 38//13 40//13
f 51//18 53//18 41//18
f 51//18 50//18 53//18
f 50//18 44//18 53//18
f 49//17 60//17 59//17
f 49//17 48//17 60//17
f 48//17 57//17 60//17
f 46//16 56//16 58//16
f 46//16 45//16 56//16
f 45//16 57//16 56//16
f 43//15 55//15 47//15
f 43//15 42//15 55//15
f 42//15 58//15 55//15
f 40//14 49//14 59//14
f 40//14 39//14 49//14
f 39//14 47//14 49//14
f 37//13 60//13 57//13
f 37//13 36//13 60//13
f 36//13 59//13 60//13
o Cube.003_Cube.006
v -0.560356 0.117579 1.008695
v 0.305669 0.042579 0.508695
v -0.560356 0.042579 1.008695
v 1.171694 0.117579 0.008696
v 1.221694 0.042579 0.095298
v 1.171694 0.042579 0.008696
v 1.271694 0.117579 0.181901
v 0.405669 0.042579 0.681901
v 1.271694 0.042579 0.181901
v -0.460356 0.117579 1.181901
v -0.510356 0.042579 1.095298
v -0.460356 0.042579 1.181901
v 1.271694 -0.032421 0.181901
v 0.355669 -0.032421 0.595298
v 1.221694 -0.032421 0.095298
v 0.355669 0.117579 0.595298
v 1.221694 0.117579 0.095298
v 0.305669 0.117579 0.508695
v 0.405669 0.117579 0.681901
v -0.510356 0.117579 1.095298
v 0.405669 -0.032421 0.681901
v -0.510356 -0.032421 1.095298
v -0.560356 -0.032421 1.008695
v -0.460356 -0.032421 1.181901
v 1.171694 -0.032421 0.008696
v 0.305669 -0.032421 0.508695
vn -0.5000 0.0000 -0.8660
vn 0.8660 -0.0000 -0.5000
vn 0.5000 0.0000 0.8660
vn -0.8660 0.0000 0.5000
vn 0.0000 -1.0000 -0.0000
vn 0.0000 1.0000 0.0000
usemtl None
s 1
f 61//19 62//19 63//19
f 64//20 65//20 66//20
f 67//21 68//21 69//21
f 70//22 71//22 72//22
f 73//23 74//23 75//23
f 64//24 76//24 77//24
f 61//19 78//19 62//19
f 64//20 77//20 65//20
f 67//21 79//21 68//21
f 70//22 80//22 71//22
f 73//23 81//23 74//23
f 64//24 78//24 76//24
f 76//24 80//24 70//24
f 76//24 78//24 80//24
f 78//24 61//24 80//24
f 74//23 82//23 83//23
f 74//23 81//23 82//23
f 81//23 84//23 82//23
f 71//22 63//22 83//22
f 71//22 80//22 63//22
f 80//22 61//22 63//22
f 68//21 72//21 84//21
f 68//21 79//21 72//21
f 79//21 70//21 72//21
f 65//20 69//20 73//20
f 65//20 77//20 69//20
f 77//20 67//20 69//20
f 62//19 66//19 85//19
f 62//19 78//19 66//19
f 78//19 64//19 66//19
f 77//24 79//24 67//24
f 77//24 76//24 79//24
f 76//24 70//24 79//24
f 75//23 86//23 85//23
f 75//23 74//23 86//23
f 74//23 83//23 86//23
f 72//22 82//22 84//22
f 72//22 71//22 82//22
f 71//22 83//22 82//22
f 69//21 81//21 73//21
f 69//21 68//21 81//21
f 68//21 84//21 81//21
f 66//20 75//20 85//20
f 66//20 65//20 75//20
f 65//20 73//20 75//20
f 63//19 86//19 83//19
f 63//19 62//19 86//19
f 62//19 85//19 86//19
o Cube.001_Cube.004
v -0.216338 0.117579 1.153835
v -0.716339 0.042579 0.287809
v -0.216338 0.042579 1.153835
v -1.216339 0.117579 -0.578216
v -1.129736 0.042579 -0.628216
v -1.216339 0.042579 -0.578216
v -1.043133 0.117579 -0.678216
v -0.543133 0.042579 0.187809
v -1.043133 0.042579 -0.678216
v -0.043133 0.117579 1.053835
v -0.129736 0.042579 1.103835
v -0.043133 0.042579 1.053835
v -1.043133 -0.032421 -0.678216
v -0.629736 -0.032421 0.237809
v -1.129736 -0.032421 -0.628216
v -0.629736 0.117579 0.237809
v -1.129736 0.117579 -0.628216
v -0.716339 0.117579 0.287809
v -0.543133 0.117579 0.187809
v -0.129736 0.117579 1.103835
v -0.543133 -0.032421 0.187809
v -0.129736 -0.032421 1.103835
v -0.216338 -0.032421 1.153835
v -0.043133 -0.032421 1.053835
v -1.216339 -0.032421 -0.578216
v -0.716339 -0.032421 0.287809
vn -0.8660 0.0000 0.5000
vn -0.5000 0.0000 -0.8660
vn 0.8660 0.0000 -0.5000
vn 0.5000 0.0000 0.8660
vn 0.0000 -1.0000 -0.0000
vn -0.0000 1.0000 0.0000
usemtl None
s 1
f 87//25 88//25 89//25
f 90//26 91//26 92//26
f 93//27 94//27 95//27
f 96//28 97//28 98//28
f 99//29 100//29 101//29
f 90//30 102//30 103//30
f 87//25 104//25 88//25
f 90//26 103//26 91//26
f 93//27 105//27 94//27
f 96//28 106//28 97//28
f 99//29 107//29 100//29
f 90//30 104//30 102//30
f 102//30 106//30 96//30
f 102//30 104//30 106//30
f 104//30 87//30 106//30
f 100//29 108//29 109//29
f 100//29 107//29 108//29
f 107//29 110//29 108//29
f 97//28 89//28 109//28
f 97//28 106//28 89//28
f 106//28 87//28 89//28
f 94//27 98//27 110//27
f 94//27 105//27 98//27
f 105//27 96//27 98//27
f 91//26 95//26 99//26
f 91//26 103//26 95//26
f 103//26 93//26 95//26
f 88//25 92//25 111//25
f 88//25 104//25 92//25
f 104//25 90//25 92//25
f 103//30 105//30 93//30
f 103//30 102//30 105//30
f 102//30 96//30 105//30
f 101//29 112//29 111//29
f 101//29 100//29 112//29
f 100//29 109//29 112//29
f 98//28 108//28 110//28
f 98//28 97//28 108//28
f 97//28 109//28 108//28
f 95//27 107//27 99//27
f 95//27 94//27 107//27
f 94//27 110//27 107//27
f 92//26 101//26 111//26
f 92//26 91//26 101//26
f 91//26 99//26 101//26
f 89//25 112//25 109//25
f 89//25 88//25 112//25
f 88//25 111//25 112//25
